# xmcd CD database file
#
# Track frame offsets:
#	150
#	19550
#	41533
#	60510
#	74306
#	91293
#	106196
#	123904
#	133878
#	160754
#	166912
#	185682
#
# Disc length: 2790 seconds
#
# Revision: 0
# Processed by: cddbd v1.5.2PL0 Copyright (c) Steve Scherf et al.
# Submitted via: CDex 1.70beta2
#
DISCID=970ae40c
DTITLE=Mitch and Mitch - 12 Catchy Tunes (We Wish We Had Composed)
DYEAR=2006
DGENRE=Country
TTITLE0=Mambo '63
TTITLE1=She's Mine
TTITLE2=Frankkus's Dilemma
TTITLE3=Karateporno
TTITLE4=Always Moving
TTITLE5=Neue Eins
TTITLE6=Na-Na-Na-Na
TTITLE7=Porque No Me Quieres?
TTITLE8=Wenderkreis Des Krebses
TTITLE9=Warjatuncio
TTITLE10=Samuu (You've Got It)
TTITLE11=Pizzaman
EXTD=YEAR: 2006
EXTT0=
EXTT1=
EXTT2=
EXTT3=
EXTT4=
EXTT5=
EXTT6=
EXTT7=
EXTT8=
EXTT9=
EXTT10=
EXTT11=
PLAYORDER=
